<svg width="16" height="16" viewBox="0 0 16 16" fill="none" xmlns="http://www.w3.org/2000/svg">
<path d="M11.6335 15.1667C10.8802 15.1667 10.0868 14.9867 9.26683 14.64C8.46683 14.3 7.66016 13.8333 6.8735 13.2667C6.0935 12.6933 5.34016 12.0533 4.62683 11.3533C3.92016 10.64 3.28016 9.88668 2.7135 9.11334C2.14016 8.31334 1.68016 7.51334 1.3535 6.74001C1.00683 5.91334 0.833496 5.11334 0.833496 4.36001C0.833496 3.84001 0.926829 3.34668 1.10683 2.88668C1.2935 2.41334 1.5935 1.97334 2.00016 1.59334C2.5135 1.08668 3.10016 0.833344 3.72683 0.833344C3.98683 0.833344 4.2535 0.893344 4.48016 1.00001C4.74016 1.12001 4.96016 1.30001 5.12016 1.54001L6.66683 3.72001C6.80683 3.91334 6.9135 4.10001 6.98683 4.28668C7.0735 4.48668 7.12016 4.68668 7.12016 4.88001C7.12016 5.13334 7.04683 5.38001 6.90683 5.61334C6.80683 5.79334 6.6535 5.98668 6.46016 6.18001L6.00683 6.65334C6.0135 6.67334 6.02016 6.68668 6.02683 6.70001C6.10683 6.84001 6.26683 7.08001 6.5735 7.44001C6.90016 7.81334 7.20683 8.15334 7.5135 8.46668C7.90683 8.85334 8.2335 9.16001 8.54016 9.41334C8.92016 9.73334 9.16683 9.89334 9.3135 9.96668L9.30016 10L9.78683 9.52001C9.9935 9.31334 10.1935 9.16001 10.3868 9.06001C10.7535 8.83334 11.2202 8.79334 11.6868 8.98668C11.8602 9.06001 12.0468 9.16001 12.2468 9.30001L14.4602 10.8733C14.7068 11.04 14.8868 11.2533 14.9935 11.5067C15.0935 11.76 15.1402 11.9933 15.1402 12.2267C15.1402 12.5467 15.0668 12.8667 14.9268 13.1667C14.7868 13.4667 14.6135 13.7267 14.3935 13.9667C14.0135 14.3867 13.6002 14.6867 13.1202 14.88C12.6602 15.0667 12.1602 15.1667 11.6335 15.1667ZM3.72683 1.83334C3.36016 1.83334 3.02016 1.99334 2.6935 2.31334C2.38683 2.60001 2.1735 2.91334 2.04016 3.25334C1.90016 3.60001 1.8335 3.96668 1.8335 4.36001C1.8335 4.98001 1.98016 5.65334 2.2735 6.34668C2.5735 7.05334 2.9935 7.78668 3.52683 8.52001C4.06016 9.25334 4.66683 9.96668 5.3335 10.64C6.00016 11.3 6.72016 11.9133 7.46016 12.4533C8.18016 12.98 8.92016 13.4067 9.6535 13.7133C10.7935 14.2 11.8602 14.3133 12.7402 13.9467C13.0802 13.8067 13.3802 13.5933 13.6535 13.2867C13.8068 13.12 13.9268 12.94 14.0268 12.7267C14.1068 12.56 14.1468 12.3867 14.1468 12.2133C14.1468 12.1067 14.1268 12 14.0735 11.88C14.0535 11.84 14.0135 11.7667 13.8868 11.68L11.6735 10.1067C11.5402 10.0133 11.4202 9.94668 11.3068 9.90001C11.1602 9.84001 11.1002 9.78001 10.8735 9.92001C10.7402 9.98668 10.6202 10.0867 10.4868 10.22L9.98016 10.72C9.72016 10.9733 9.32016 11.0333 9.0135 10.92L8.8335 10.84C8.56016 10.6933 8.24016 10.4667 7.88683 10.1667C7.56683 9.89334 7.22016 9.57334 6.80016 9.16001C6.4735 8.82668 6.14683 8.47334 5.80683 8.08001C5.4935 7.71334 5.26683 7.40001 5.12683 7.14001L5.04683 6.94001C5.00683 6.78668 4.9935 6.70001 4.9935 6.60668C4.9935 6.36668 5.08016 6.15334 5.24683 5.98668L5.74683 5.46668C5.88016 5.33334 5.98016 5.20668 6.04683 5.09334C6.10016 5.00668 6.12016 4.93334 6.12016 4.86668C6.12016 4.81334 6.10016 4.73334 6.06683 4.65334C6.02016 4.54668 5.94683 4.42668 5.8535 4.30001L4.30683 2.11334C4.24016 2.02001 4.16016 1.95334 4.06016 1.90668C3.9535 1.86001 3.84016 1.83334 3.72683 1.83334ZM9.30016 10.0067L9.1935 10.46L9.3735 9.99334C9.34016 9.98668 9.3135 9.99334 9.30016 10.0067Z" fill="#0E0D14"/>
</svg>
