<svg width="24" height="24" viewBox="0 0 24 24" fill="none" xmlns="http://www.w3.org/2000/svg">
<path fill-rule="evenodd" clip-rule="evenodd" d="M7.85061 22H16.1585C19.2102 22 21.5513 20.8476 20.8863 16.2095L20.112 9.92382C19.7021 7.60953 18.2901 6.72382 17.0512 6.72382H6.92144C5.66432 6.72382 4.33433 7.6762 3.86063 9.92382L3.08632 16.2095C2.52153 20.3238 4.79891 22 7.85061 22Z" stroke="#0E0D14" stroke-width="1.5" stroke-linecap="round" stroke-linejoin="round"/>
<path d="M7.714 6.49528C7.714 4.01263 9.63904 2.00004 12.0137 2.00004V2.00004C13.1572 1.99497 14.2555 2.46634 15.0658 3.30991C15.8761 4.15348 16.3316 5.29976 16.3316 6.49528V6.49528" stroke="#0E0D14" stroke-width="1.5" stroke-linecap="round" stroke-linejoin="round"/>
<path d="M9.0622 11.181H9.10775" stroke="#0E0D14" stroke-width="1.5" stroke-linecap="round" stroke-linejoin="round"/>
<path d="M14.8648 11.181H14.9104" stroke="#0E0D14" stroke-width="1.5" stroke-linecap="round" stroke-linejoin="round"/>
</svg>
