<svg width="40" height="40" viewBox="0 0 40 40" fill="none" xmlns="http://www.w3.org/2000/svg">
<rect x="0.75" y="-0.75" width="38.5" height="38.5" rx="19.25" transform="matrix(1 0 0 -1 0 38.5)" stroke="#FFF2DF" stroke-width="1.5"/>
<path fill-rule="evenodd" clip-rule="evenodd" d="M17.1306 20.9272C16.7008 20.9272 16.3516 20.578 16.3516 20.1482C16.3516 19.7196 16.7008 19.3704 17.1306 19.3704C17.5605 19.3704 17.9097 19.7196 17.9097 20.1482C17.9097 20.578 17.5605 20.9272 17.1306 20.9272ZM20.1593 20.9272C19.7294 20.9272 19.3802 20.578 19.3802 20.1482C19.3802 19.7196 19.7294 19.3704 20.1593 19.3704C20.5891 19.3704 20.9383 19.7196 20.9383 20.1482C20.9383 20.578 20.5891 20.9272 20.1593 20.9272ZM22.4087 20.1482C22.4087 20.578 22.7579 20.9272 23.1877 20.9272C23.6176 20.9272 23.9668 20.578 23.9668 20.1482C23.9668 19.7196 23.6176 19.3704 23.1877 19.3704C22.7579 19.3704 22.4087 19.7196 22.4087 20.1482Z" fill="#FFF2DF"/>
<path fill-rule="evenodd" clip-rule="evenodd" d="M20.0135 13.3333C16.1402 13.3333 13.3335 16.4974 13.3335 20.01C13.3335 21.1317 13.6602 22.2861 14.2335 23.341C14.3402 23.5153 14.3535 23.7349 14.2802 23.9426L13.8335 25.4382C13.7335 25.7987 14.0402 26.0651 14.3802 25.9583L15.7268 25.5583C16.0935 25.4382 16.3802 25.5911 16.7202 25.7987C17.6935 26.3722 18.9068 26.6667 20.0002 26.6667C23.3068 26.6667 26.6668 24.1095 26.6668 19.99C26.6668 16.4373 23.8002 13.3333 20.0135 13.3333Z" stroke="#FFF2DF" stroke-linecap="round" stroke-linejoin="round"/>
</svg>
