<svg width="20" height="20" viewBox="0 0 20 20" fill="none" xmlns="http://www.w3.org/2000/svg">
<path d="M9.29199 2.41669H10.708C12.3307 2.41669 13.4688 2.41856 14.3291 2.53973C15.1641 2.6574 15.6264 2.87461 15.9629 3.22723C16.3039 3.58478 16.5174 4.08321 16.6318 4.97528C16.7486 5.88576 16.75 7.08759 16.75 8.78583V12.4802C16.75 13.95 16.7496 15.0032 16.6836 15.7751C16.6153 16.5737 16.4854 16.8963 16.3672 17.0388C16.0506 17.4202 15.5922 17.6134 15.1328 17.5798C14.977 17.5683 14.6837 17.4512 14.0967 16.9372C13.5315 16.4423 12.8218 15.7003 11.8291 14.6599C11.6108 14.4311 11.4162 14.2254 11.2412 14.07C11.0604 13.9094 10.8494 13.7543 10.5811 13.6647C10.2035 13.5387 9.79652 13.5387 9.41895 13.6647C9.1506 13.7543 8.93965 13.9094 8.75879 14.07C8.58384 14.2254 8.38915 14.4311 8.1709 14.6599C7.17818 15.7003 6.46849 16.4423 5.90332 16.9372C5.31629 17.4512 5.023 17.5683 4.86719 17.5798C4.40784 17.6134 3.94937 17.4202 3.63281 17.0388C3.51464 16.8963 3.38473 16.5737 3.31641 15.7751C3.2504 15.0032 3.25 13.95 3.25 12.4802V8.78583C3.25 7.08758 3.25137 5.88576 3.36816 4.97528C3.48261 4.08321 3.6961 3.58478 4.03711 3.22723C4.37355 2.87461 4.83585 2.6574 5.6709 2.53973C6.53115 2.41856 7.66928 2.41669 9.29199 2.41669Z" stroke="#0E0D14" stroke-width="1.5"/>
</svg>
