<svg width="18" height="14" viewBox="0 0 18 14" fill="none" xmlns="http://www.w3.org/2000/svg">
<path fill-rule="evenodd" clip-rule="evenodd" d="M6.29395 0.333332C6.61214 0.333332 6.87047 0.581027 6.87047 0.886832C6.87047 1.19191 6.61289 1.43961 6.29395 1.43961L5.05986 1.44033C4.03562 1.44179 3.20229 2.24153 3.20229 3.22432L3.20229 4.60154C3.20229 4.90661 2.9432 5.15504 2.62502 5.15504C2.30683 5.15504 2.0485 4.90661 2.0485 4.60154L2.0485 3.22432C2.0485 1.6321 3.39926 0.335511 5.05911 0.334058L6.2932 0.333332H6.29395ZM11.7282 0.333332L12.935 0.333332C14.5994 0.333332 15.9524 1.63064 15.9524 3.2265V4.60154C15.9524 4.90661 15.6949 5.15504 15.3759 5.15504C15.0577 5.15504 14.7994 4.90661 14.7994 4.60154V3.2265C14.7994 2.2408 13.963 1.43888 12.935 1.43888L11.7282 1.43888C11.41 1.43888 11.1517 1.19191 11.1517 0.886832C11.1517 0.581027 11.41 0.333332 11.7282 0.333332ZM11.0928 3.10595L6.90797 3.10595C5.95039 3.1154 5.1807 3.86575 5.18903 4.78462V5.70712C5.1913 5.81462 5.28145 5.90251 5.39357 5.90615L12.6057 5.90615C12.7186 5.90324 12.8087 5.81535 12.8125 5.70712V4.78462C12.8133 4.3408 12.6345 3.91441 12.3118 3.59699C11.9913 3.28246 11.5511 3.10595 11.0928 3.10595ZM1.24394 7.03092L16.7568 7.03092C17.075 7.03092 17.3333 7.27861 17.3333 7.58442C17.3333 7.8895 17.075 8.13647 16.7568 8.13647H15.9523V10.7732C15.9523 12.3698 14.5985 13.6671 12.9348 13.6671H11.728C11.4091 13.6671 11.1508 13.4194 11.1508 13.1136C11.1508 12.8085 11.4091 12.5608 11.728 12.5608H12.9348C13.9629 12.5608 14.7992 11.7596 14.7992 10.7732V8.13647L12.8121 8.13647V8.87084C12.8197 9.78971 12.0508 10.5408 11.0924 10.5495H6.90757C5.95 10.5408 5.18106 9.78971 5.18863 8.87084L5.18863 8.13647H3.20151L3.20151 10.7761C3.20151 11.7589 4.0356 12.5587 5.0606 12.5601L6.29394 12.5608C6.61212 12.5608 6.87045 12.8085 6.87045 13.1136C6.86969 13.4194 6.61212 13.6671 6.29318 13.6671L5.05909 13.6664C3.39924 13.6649 2.04773 12.3684 2.04773 10.7761L2.04773 8.13647H1.24394C0.925757 8.13647 0.666666 7.8895 0.666666 7.58442C0.666666 7.27861 0.925757 7.03092 1.24394 7.03092Z" fill="#0E0D14"/>
</svg>
